<?xml version="1.0" encoding="utf-8"?>
<!-- Generator: Adobe Illustrator 24.0.0, SVG Export Plug-In . SVG Version: 6.00 Build 0)  -->
<svg version="1.1" id="Capa_1" xmlns="http://www.w3.org/2000/svg" xmlns:xlink="http://www.w3.org/1999/xlink" x="0px" y="0px"
	 viewBox="0 0 512 512" style="enable-background:new 0 0 512 512;" xml:space="preserve">
<style type="text/css">
	.st0{fill:#393939;}
</style>
<path class="st0" d="M472,332V120c0-22.1-17.9-40-40-40h-26v20c0,11-9,20-20,20s-20-9-20-20V80h-91v20c0,11-9,20-20,20s-20-9-20-20
	V80h-90v20c0,11-9,20-20,20s-20-9-20-20V80H80c-22.1,0-40,17.9-40,40v312c0,22.1,17.9,40,40,40h352c22.1,0,40-17.9,40-40
	c0-11,9-20,20-20s20,9,20,20c0,44.1-35.9,80-80,80H80c-44.1,0-80-35.9-80-80V120c0-44.1,35.9-80,80-80h25V20c0-11,9-20,20-20
	s20,9,20,20v20h90V20c0-11,9-20,20-20c11,0,20,9,20,20v20h91V20c0-11,9-20,20-20s20,9,20,20v20h26c44.1,0,80,35.9,80,80v212
	c0,11-9,20-20,20S472,343,472,332z M145,210c0-11-9-20-20-20s-20,9-20,20l0,0c0,11,9,20,20,20S145,221,145,210L145,210z M319,210
	c0-11-9-20-20-20s-20,9-20,20l0,0c0,11,9,20,20,20S319,221,319,210L319,210z M406,210c0-11-9-20-20-20s-20,9-20,20l0,0
	c0,11,9,20,20,20S406,221,406,210L406,210z M145,297c0-11-9-20-20-20s-20,9-20,20l0,0c0,11,9,20,20,20S145,308,145,297L145,297z
	 M125,364c-11,0-20,9-20,20l0,0c0,11,9,20,20,20s20-9,20-20l0,0C145,373,136,364,125,364z M232,210c0-11-9-20-20-20s-20,9-20,20l0,0
	c0,11,9,20,20,20S232,221,232,210L232,210z M232,297c0-11-9-20-20-20s-20,9-20,20l0,0c0,11,9,20,20,20S232,308,232,297L232,297z
	 M212,364c-11,0-20,9-20,20l0,0c0,11,9,20,20,20s20-9,20-20l0,0C232,373,223,364,212,364z M319,297c0-11-9-20-20-20s-20,9-20,20l0,0
	c0,11,9,20,20,20S319,308,319,297L319,297z M386,277c-11,0-20,9-20,20l0,0c0,11,9,20,20,20s20-9,20-20l0,0C406,286,397,277,386,277z
	 M299,364c-11,0-20,9-20,20l0,0c0,11,9,20,20,20s20-9,20-20l0,0C319,373,310,364,299,364z"/>
</svg>
