<svg width="350" height="110" viewBox="0 0 350 110" fill="none" xmlns="http://www.w3.org/2000/svg">
<path d="M0 106.763V0H23.181V47.0149L19.916 55.8302H23.834C23.9428 53.0006 27.556 45.5784 34.6082 38.5261C42.1175 31.0168 54.5243 29.7108 68.2369 35.9142C79.2996 40.9187 83.0379 54.0889 83.2556 60.7276V106.763H59.4216V66.931C59.3128 62.4689 55.6996 53.4795 42.1175 53.2183C28.5354 52.9571 23.834 64.8632 23.181 70.8489V106.763H0Z" fill="#BA59B8"/>
<path d="M205.364 20.2425V32.9757H188.06V52.8918H205.69V100.886C205.69 105.849 212.002 106.872 215.159 106.763H255.644V87.1735H230.83C229.263 87.1735 228.654 86.0852 228.545 85.541V52.8918H252.705V32.9757H228.545V11.7537L205.364 20.2425Z" fill="#BA59B8"/>
<path d="M116.558 74.1138V33.3022H93.7033V75.7463C93.3768 85.6499 97.8824 106.241 118.517 109.375C139.151 112.509 150.187 95.6623 153.125 86.847H158.022L153.778 99.2537V109.375H177.612V33.3022H153.778C156.063 79.3377 148.228 89.459 131.903 89.459C118.843 89.459 116.231 79.2289 116.558 74.1138Z" fill="#BA59B8"/>
<path d="M288.946 74.1138V33.3022H266.091V75.7463C265.765 85.6499 270.27 106.241 290.905 109.375C311.539 112.509 322.575 95.6623 325.513 86.847H330.41L326.166 99.2537V109.375H350V33.3022H326.166C328.451 79.3377 320.616 89.459 304.291 89.459C291.231 89.459 288.619 79.2289 288.946 74.1138Z" fill="#BA59B8"/>
</svg>
