<svg width="377" height="611" viewBox="0 0 377 611" fill="none" xmlns="http://www.w3.org/2000/svg">
<path d="M72.7317 117.094C70.2291 108.969 67.7265 100.846 61.2451 97.636C54.7637 94.4256 44.3009 96.1327 35.7454 100.436C27.19 104.74 20.5393 111.639 16.2272 114.35C11.9177 117.06 9.94684 115.583 12.0394 114.72C14.132 113.857 20.2906 113.611 25.3408 116.321C30.391 119.031 34.3327 124.701 40.0337 128.139C45.7347 131.577 53.1976 132.783 60.6604 133.99M98.8901 298.283C101.845 303.857 104.797 309.431 109.416 316.222C114.035 323.014 120.316 331.022 125.736 338.663C131.154 346.304 135.712 353.572 138.3 359.056C140.887 364.54 141.501 368.237 147.844 369.221C154.188 370.206 166.257 368.483 176.91 366.08C187.563 363.677 196.801 360.596 205.976 355.051C215.153 349.507 224.267 341.498 233.38 331.949C242.494 322.4 251.61 311.31 256.473 301.33C261.335 291.349 261.954 282.478 262.631 273.482C263.308 264.486 264.047 255.368 264.478 246.743C264.909 238.117 265.031 229.984 265.893 224.439C266.755 218.895 268.356 215.938 271.927 213.04C275.499 210.142 281.041 207.31 286.152 207.556C291.263 207.803 295.943 211.129 297.853 220.186C299.763 229.243 298.901 244.03 295.144 254.749C291.387 265.468 284.737 272.121 279.009 276.128C273.282 280.133 268.478 281.488 266.078 280.133C263.676 278.778 263.676 274.71 265.155 271.137C266.634 267.564 269.589 264.483 273.652 262.572C277.716 260.661 282.89 259.923 286.954 255.302C291.017 250.681 293.975 242.18 294.467 234.539C294.959 226.901 292.988 220.123 289.417 216.671C285.845 213.22 280.673 213.099 276.607 215.994C272.544 218.889 269.586 224.805 269.34 230.781C269.094 236.757 271.557 242.794 271.311 248.278C271.065 253.762 268.11 258.69 265.152 263.618L98.8901 298.283ZM174.72 319.499C171.609 321.963 166.746 325.597 161.971 329.604C157.196 333.611 152.519 337.983 147.501 340.294C142.482 342.604 137.122 342.85 133.522 340.664C129.921 338.478 128.072 333.857 126.44 331.269C124.808 328.68 123.392 328.127 123.3 328.22C123.207 328.312 124.44 329.051 126.255 328.405C128.072 327.756 130.474 325.724 133.122 325.292C135.771 324.861 138.665 326.031 142.143 325.353C145.622 324.676 149.686 322.148 154.368 320.764C159.051 319.38 164.344 319.131 167.548 319.255C170.752 319.38 171.857 319.872 168.442 319.994C165.024 320.118 157.08 319.872 151.598 320.272C146.117 320.671 143.101 321.719 140.083 322.09C137.064 322.461 134.048 322.151 131.924 322.646C129.8 323.138 128.567 324.432 127.152 325.634C125.736 326.835 124.133 327.944 123.056 327.142C121.98 326.341 121.424 323.63 121.916 320.457C122.408 317.284 123.948 313.65 125.705 311.832C127.458 310.013 129.429 310.013 130.969 310.598C132.509 311.183 133.617 312.353 135.342 311.675C137.067 310.998 139.408 308.47 143.069 307.547C146.733 306.623 151.723 307.301 156.588 308.87C161.453 310.44 166.193 312.906 169.857 314.293C173.521 315.68 176.109 315.987 177.709 315.833C179.31 315.68 179.926 315.063 179.556 315.402C179.188 315.741 177.831 317.035 174.722 319.499H174.72ZM376 558.419C374.767 541.169 373.537 523.918 367.995 504.449C362.453 484.98 352.598 463.294 341.022 440.498C329.445 417.703 316.144 393.798 303.826 373.591C291.512 353.384 280.179 336.872 273.729 321.203C267.279 305.535 265.711 290.711 265.094 281.255C264.478 271.798 264.816 267.707 265.155 263.618L376 558.419ZM35.7005 596.129C38.4094 584.915 41.1184 573.704 43.0919 563.353C45.0628 553.002 46.2929 543.514 47.2188 533.718C48.1421 523.923 48.7585 513.818 48.8828 506.241C49.0045 498.664 48.6368 493.611 50.2373 490.655C51.8378 487.699 55.4092 486.836 56.5176 484.308C57.6261 481.783 56.2716 477.594 57.9964 473.896C59.7213 470.199 64.5255 466.996 69.6365 461.944C74.7475 456.892 80.1681 449.992 83.0014 445.064C85.8347 440.136 86.0807 437.179 86.0807 437.733C86.0807 438.286 85.8347 442.354 87.5595 444.878C89.2844 447.406 92.9801 448.391 95.7499 446.112C98.5197 443.833 100.369 438.288 99.9377 435.393C99.5065 432.497 96.7975 432.251 98.7049 431.881C100.615 431.51 107.141 431.018 114.101 429.356C121.059 427.694 128.45 424.859 134.916 423.009C141.382 421.162 146.924 420.299 150.188 420.484C153.453 420.67 154.437 421.9 154.561 423.441C154.686 424.981 153.945 426.828 151.236 427.691C148.527 428.554 143.847 428.43 141.321 427.321C138.797 426.212 138.427 424.116 141.136 422.639C143.844 421.159 149.633 420.296 152.897 421.159C156.162 422.022 156.9 424.61 155.977 427.506C155.053 430.401 152.466 433.604 144.953 436.563C137.44 439.519 125.001 442.232 117.303 444.818C109.604 447.406 106.649 449.87 103.078 453.012C99.5065 456.153 95.3187 459.972 92.2394 462.008C89.16 464.04 87.1892 464.286 87.4987 463.302C87.8056 462.317 90.3928 460.099 91.3161 461.023C92.2394 461.947 91.5013 466.015 93.0409 468.232C94.5806 470.45 98.398 470.821 102.215 468.786C106.033 466.753 109.853 462.317 110.099 459.422C110.345 456.526 107.02 455.171 110.469 454.184C113.919 453.2 124.141 452.583 134.117 451.905C144.093 451.228 153.823 450.489 160.043 450.241C166.262 449.994 168.971 450.241 170.143 452.027C171.312 453.814 170.945 457.14 168.974 458.742C167.003 460.343 163.432 460.221 160.23 459.48C157.027 458.742 154.196 457.387 153.887 455.661C153.58 453.935 155.797 451.842 159.059 450.855C162.323 449.87 166.633 449.992 168.974 451.657C171.315 453.321 171.683 456.524 170.453 459.112C169.222 461.701 166.389 463.672 160.847 465.21C155.305 466.75 147.053 467.859 138.308 469.275C129.562 470.691 120.326 472.417 112.935 475.683C105.546 478.949 100.004 483.752 94.5832 488.191C89.1653 492.627 83.8691 496.692 79.4961 499.034C75.1232 501.376 71.6762 501.99 75.9856 499.773C80.2951 497.555 92.3663 492.502 98.0938 490.716C103.821 488.929 103.205 490.406 102.588 492.809C101.972 495.212 101.358 498.539 103.39 500.572C105.422 502.604 110.104 503.346 113.922 501.31C117.739 499.278 120.697 494.471 120.017 491.515C119.34 488.559 115.03 487.45 111.887 487.264C108.747 487.079 106.776 487.818 109.424 488.249C112.072 488.68 119.34 488.805 127.837 488.741C136.334 488.68 146.067 488.434 153.826 488.741C161.585 489.051 167.373 489.911 171.191 490.774C175.008 491.637 176.857 492.5 177.471 494.286C178.087 496.073 177.471 498.783 176.487 500.508C175.503 502.234 174.146 502.972 171.315 502.911C168.482 502.851 164.172 501.988 161.955 500.138C159.738 498.288 159.614 495.456 161.154 493.791C162.693 492.129 165.894 491.634 169.037 491.698C172.177 491.758 175.257 492.375 176.49 494.286C177.72 496.197 177.106 499.399 175.074 501.617C173.042 503.835 169.593 505.068 161.527 505.807C153.461 506.545 140.773 506.794 131.474 507.225C122.175 507.657 116.263 508.274 110.721 510.613C105.178 512.955 100.006 517.021 94.0938 520.472C88.1812 523.923 81.5305 526.755 77.1576 527.988C72.7846 529.222 70.692 528.851 73.0941 527.681C75.4962 526.512 82.3929 524.54 88.2421 522.875C94.0938 521.213 98.8954 519.855 100.435 520.226C101.975 520.596 100.25 522.69 101.112 524.355C101.975 526.019 105.422 527.25 108.811 526.141C112.197 525.032 115.525 521.581 115.646 519.487C115.771 517.394 112.691 516.653 109.919 516.777C107.149 516.899 104.684 517.886 107.147 517.825C109.609 517.764 117.001 516.655 123.837 515.547C130.673 514.438 136.953 513.329 142.495 512.344C148.038 511.36 152.842 510.497 155.675 510.497C158.508 510.497 159.371 511.36 159.678 512.654C159.987 513.948 159.738 515.674 157.707 516.965C155.675 518.259 151.858 519.122 148.963 518.752C146.069 518.381 144.098 516.78 144.654 515.179C145.207 513.577 148.286 511.976 151.551 511.235C154.815 510.497 158.265 510.618 159.865 512.468C161.466 514.316 161.22 517.889 158.141 521.155C155.061 524.421 149.149 527.377 139.604 530.397C130.059 533.417 116.879 536.497 107.705 539.454C98.5276 542.41 93.3557 545.245 89.1071 547.526C84.8585 549.805 81.5332 551.53 79.6231 551.594C77.7158 551.655 77.221 550.053 79.0385 549.098C80.8559 548.143 84.9802 547.836 87.0437 547.682C88.4193 547.58 88.481 548.915 87.2288 551.686C85.3506 555.844 81.594 564.163 79.2237 574.575C76.8533 584.987 75.8666 597.492 74.8825 610L35.7005 596.129ZM156.003 423.549C169.852 421.442 183.704 419.333 196.725 415.937C209.746 412.542 221.939 407.86 229.081 403.795C236.224 399.729 238.319 396.278 235.362 396.649C232.407 397.019 224.399 401.209 216.457 405.398C208.513 409.588 200.632 413.778 197.368 413.839C194.103 413.9 195.458 409.834 194.905 401.947C194.352 394.06 191.889 382.354 189.894 375.407C187.902 368.459 186.378 366.268 184.857 364.079L156.003 423.549ZM139.572 74.499C144.389 71.286 152.715 66.5273 159.016 60.1621C165.32 53.797 169.601 45.8253 171.86 39.8756C174.119 33.9259 174.357 30.001 175.368 27.6799C176.378 25.3588 178.164 24.6468 178.579 23.4558C178.995 22.2648 178.045 20.6001 177.034 19.8855C176.024 19.1709 174.953 19.4091 174.357 18.5172C173.762 17.6253 173.643 15.6032 172.513 15.1268C171.384 14.6504 169.241 15.7223 167.873 15.1268C166.506 14.5313 165.91 12.2711 164.961 11.6756C164.008 11.0801 162.701 12.152 160.5 12.2102C158.299 12.2685 155.207 11.3183 153.72 14.8886C152.233 18.459 152.352 26.5497 150.807 33.6877C149.262 40.8257 146.051 47.0136 142.662 52.1904C139.273 57.3673 135.704 61.5305 134.871 64.0898C134.038 66.6491 135.94 67.5992 138.141 64.9235C140.342 62.245 142.839 55.9407 144.921 48.5619C147.003 41.1857 148.667 32.7376 149.739 26.2533C150.807 19.769 151.284 15.2486 151.106 11.4983C150.929 7.75063 150.096 4.7758 148.905 4.12208C147.717 3.46836 146.17 5.13309 144.683 4.59847C143.196 4.06385 141.77 1.32722 140.58 1.02815C139.392 0.731724 138.44 2.87286 137.011 2.93109C135.585 2.98931 133.681 0.967276 131.956 1.32457C130.231 1.68187 128.686 4.4185 125.831 5.78682C122.977 7.15513 118.813 7.15513 115.305 9.17717C111.797 11.1992 108.943 15.2459 107.752 21.1956C106.565 27.1452 107.038 34.9978 109.181 41.4239C111.321 47.8499 115.128 52.8468 117.088 56.6527C119.051 60.4612 119.17 63.0787 117.98 61.8295C116.789 60.5803 114.292 55.4643 111.083 48.9774C107.871 42.4931 103.948 34.6405 99.5461 29.821C95.1467 25.0015 90.2685 23.2176 87.0595 22.5639C83.8479 21.9102 82.303 22.3866 81.2924 23.5749C80.2819 24.7633 79.8057 26.6688 78.3771 27.6216C76.9512 28.5744 74.5729 28.5744 73.2026 29.8819C71.8349 31.192 71.4777 33.8095 70.1709 35.4742C68.8614 37.139 66.6021 37.8536 65.6524 39.0446C64.7001 40.2355 65.0572 41.9003 64.2847 43.3295C63.5122 44.756 61.6075 45.947 61.6075 46.6616C61.6075 47.3762 63.5096 47.6144 68.2688 47.4953C73.0253 47.3762 80.639 46.8998 88.3082 49.8746C95.98 52.8495 103.71 59.2755 108.943 64.5106C114.176 69.7456 116.911 73.7924 117.564 75.6953C118.218 77.5982 116.792 77.36 113.461 73.6124C110.131 69.8647 104.898 62.6076 97.9403 57.669C90.9828 52.7304 82.3003 50.1128 75.4618 49.0436C68.6233 47.9743 63.6286 48.4481 61.0123 50.3537C58.3959 52.2593 58.1578 55.5887 56.7901 56.957C55.4224 58.3254 52.9251 57.7299 51.8537 58.9791C50.7849 60.2283 51.1394 63.3222 51.1394 65.8815C51.1394 68.4408 50.7823 70.4629 49.8299 71.1166C48.8775 71.7703 47.3326 71.0584 47.4516 71.9503C47.5707 72.8422 49.3537 75.3406 50.6632 77.4844C51.9727 79.6256 52.8034 81.4121 53.5177 83.315C54.2319 85.2179 54.8272 87.2426 57.2055 89.2646C59.5837 91.2867 63.7477 93.3114 68.4434 92.7159C73.1417 92.1204 78.3745 88.9073 85.9855 86.8853C93.5991 84.8633 103.588 84.0296 110.07 84.0296C116.551 84.0296 119.525 84.8633 117.205 84.6251C114.885 84.3869 107.274 83.0768 98.1176 82.6613C88.9616 82.2457 78.2554 82.7195 71.9539 85.8134C65.6498 88.9074 63.7477 94.6188 64.5202 98.962C65.2926 103.305 68.7423 106.28 70.2291 109.255C71.7158 112.23 71.2396 115.204 72.7264 117.107C74.2132 119.01 77.6628 119.844 81.0517 119.071C84.4405 118.298 87.7712 115.919 91.697 114.966C95.6229 114.013 100.141 114.49 104.125 113.241C108.11 111.991 111.559 109.017 112.271 105.269C112.985 101.521 110.961 96.9981 111.202 93.6078C111.44 90.2174 113.937 87.9572 117.744 86.528C121.551 85.1015 126.665 84.506 129.101 85.337C131.54 86.1707 131.302 88.431 135.167 91.4058C139.032 94.3806 147.001 98.07 152.114 101.699C157.228 105.327 159.487 108.897 158.477 111.872C157.466 114.847 153.183 117.226 150.209 117.761C147.236 118.296 145.572 116.988 143.847 117.465C142.122 117.941 140.339 120.201 137.305 120.974C134.273 121.747 129.99 121.032 127.551 119.725C125.112 118.417 124.519 116.512 123.152 115.739C121.784 114.966 119.644 115.324 118.691 113.894C117.739 112.465 117.977 109.252 117.265 105.684C116.551 102.114 114.887 98.1891 115.541 94.2615C116.194 90.3339 119.168 86.4089 122.974 84.4451C126.781 82.4813 131.419 82.4813 133.739 83.8496C136.059 85.2179 136.059 87.9546 140.636 89.7993C145.215 91.644 154.373 92.5941 161.508 93.7851C168.643 94.9761 173.757 96.4026 177.564 95.569C181.37 94.7353 183.868 91.644 184.698 88.8465C185.532 86.0516 184.698 83.5505 185.413 81.0521C186.127 78.5537 188.386 76.0552 187.733 74.2105C187.079 72.3658 183.511 71.1775 178.336 72.0694C173.162 72.9613 166.384 75.9361 160.138 77.8999C153.895 79.8638 148.186 80.8166 144.559 80.933C140.932 81.0495 139.387 80.3375 141.882 79.4456C144.379 78.5537 150.921 77.4818 159.127 75.9944C167.334 74.507 177.206 72.604 183.331 70.402C189.455 68.2 191.836 65.7016 192.786 64.275C193.738 62.8485 193.262 62.4912 194.211 61.8375C195.164 61.1837 197.542 60.231 197.899 58.2089C198.256 56.1869 196.59 53.0929 195.045 51.4864C193.5 49.8799 192.071 49.7608 191.357 48.3925C190.643 47.0242 190.643 44.4067 188.145 43.9911C185.648 43.5756 180.653 45.3594 175.122 49.5835C169.593 53.8075 163.527 60.4691 157.876 65.5269C152.225 70.5846 146.995 74.0359 142.474 76.2352C137.953 78.4346 134.149 79.3874 130.879 79.8638C127.609 80.3402 124.874 80.3402 122.615 79.0301C120.355 77.7226 118.57 75.1024 118.035 72.1885C117.501 69.2745 118.213 66.0615 120.236 63.8595C122.257 61.6575 125.588 60.4691 128.503 61.242C131.416 62.0148 133.916 64.7514 134.035 67.8453C134.154 70.9393 131.895 74.3905 131.181 76.6507C130.466 78.911 131.3 79.9829 132.368 79.6838C133.44 79.3874 134.747 77.72 139.564 74.507L139.572 74.499ZM110.445 109.085C112.146 116.395 113.848 123.705 117.136 129.144C120.424 134.583 125.302 138.153 132.051 141.009C138.802 143.865 147.424 146.006 152.982 149.457C158.543 152.909 161.04 157.667 159.969 158.112C158.9 158.559 154.26 154.692 147.54 151.209C140.821 147.729 132.019 144.635 125.033 144.368C118.046 144.1 112.871 146.657 110.197 149.603C107.52 152.549 107.342 155.878 105.737 158.199C104.131 160.52 101.099 161.828 100.385 164.355C99.6705 166.883 101.276 170.63 102.287 173.428C103.297 176.225 103.713 178.068 105.112 179.11C106.509 180.15 108.89 180.389 110.554 182.114C112.218 183.84 113.17 187.053 115.43 189.046C117.689 191.039 121.257 191.812 122.564 190.295C123.874 188.779 122.921 184.97 122.98 180.508C123.038 176.045 124.109 170.93 127.411 167.51C130.712 164.088 136.241 162.365 141.802 162.156C147.363 161.947 152.953 163.257 156.58 163.376C160.207 163.495 161.871 162.423 160.355 162.722C158.839 163.019 154.141 164.686 148.284 165.787C142.426 166.888 135.408 167.423 131.009 170.694C126.609 173.965 124.824 179.976 125.181 184.2C125.538 188.424 128.035 190.861 129.107 193.093C130.175 195.324 129.821 197.346 130.652 199.548C131.485 201.75 133.506 204.129 135.826 204.783C138.146 205.436 140.762 204.367 143.437 204.515C146.114 204.664 148.85 206.032 150.842 205.706C152.834 205.378 154.082 203.356 156.135 202.761C158.188 202.165 161.04 202.999 164.252 201.422C167.463 199.844 171.029 195.861 172.429 191.428C173.828 186.995 173.053 182.117 172.013 177.745C170.974 173.372 169.664 169.506 169.754 167.095C169.844 164.686 171.331 163.733 173.262 166.261C175.193 168.788 177.574 174.799 183.045 178.666C188.516 182.532 197.079 184.258 203.412 184.316C209.746 184.377 213.849 182.771 217.298 183.157C220.748 183.543 223.542 185.923 225.177 185.655C226.812 185.388 227.288 182.472 229.132 181.49C230.976 180.508 234.187 181.461 235.703 179.587C237.219 177.713 237.042 173.012 237.518 169.622C237.994 166.232 239.124 164.149 238.319 160.965C237.518 157.781 234.78 153.499 231.272 151.564C227.764 149.632 223.481 150.047 217 151.712C210.518 153.377 201.836 156.294 194.254 158.048C186.672 159.803 180.191 160.399 178.466 160.518C176.741 160.637 179.775 160.279 183.222 158.257C186.669 156.235 190.537 152.546 195.442 147.875C200.346 143.206 206.293 137.553 213.074 133.863C219.851 130.174 227.465 128.448 233.38 128.448C239.296 128.448 243.52 130.174 245.69 132.582C247.862 134.991 247.978 138.085 249.287 140.377C250.597 142.669 253.094 144.153 253.539 145.821C253.986 147.486 252.38 149.33 251.991 151.114C251.605 152.898 252.438 154.624 251.962 155.754C251.486 156.884 249.703 157.418 248.364 158.461C247.026 159.501 246.134 161.05 244.589 161.674C243.044 162.299 240.843 162.002 238.642 161.703L110.445 109.085ZM160.257 202.422C161.707 205.863 163.156 209.306 165.249 212.305C167.342 215.306 170.077 217.862 171.892 218.487C173.706 219.112 174.598 217.804 175.786 218.04C176.976 218.278 178.463 220.062 179.831 220.329C181.198 220.596 182.447 219.347 184.053 219.019C185.659 218.691 187.622 219.286 189.227 218.514C190.833 217.741 192.082 215.6 194.103 214.557C196.124 213.517 198.92 213.575 200.703 212.474C202.487 211.373 203.259 209.113 203.32 207.477C203.378 205.841 202.725 204.83 203.201 203.729C203.677 202.628 205.283 201.44 205.55 198.701C205.817 195.964 204.746 191.682 203.481 188.982C202.214 186.283 200.751 185.168 199.857 184.591C198.963 184.015 198.637 183.975 198.312 183.938L160.257 202.422ZM203.233 94.4997C202.132 94.1133 201.301 92.565 199.844 91.4667C198.386 90.3656 196.304 89.7119 192.936 90.2889C189.566 90.8685 184.907 92.6788 180.865 96.3974C176.823 100.116 173.392 105.74 172.315 113.362C171.238 120.985 172.513 130.603 173.495 134.411C174.476 138.22 175.164 136.213 177.053 136.64C178.942 137.066 182.034 139.921 183.087 143.002C184.14 146.083 183.151 149.394 181.278 151.09C179.405 152.787 176.648 152.869 175.505 154.187C174.365 155.508 174.841 158.064 173.709 159.522C172.58 160.981 169.844 161.338 167.286 159.851C164.728 158.363 162.35 155.031 161.873 151.998C161.397 148.965 162.826 146.228 164.31 145.752C165.797 145.276 167.342 147.062 167.283 147.239C167.225 147.417 165.558 145.99 166.093 144.265C166.627 142.539 169.365 140.517 172.188 140.218C175.013 139.921 177.926 141.348 180.098 142.835C182.27 144.323 183.696 145.868 184.143 148.012C184.59 150.153 184.053 152.89 182.685 154.555C181.318 156.219 179.114 156.812 179.262 155.889C179.41 154.968 181.91 152.53 185.746 150.241C189.582 147.951 194.754 145.808 200.016 142.505C205.277 139.202 210.632 134.742 214.706 129.42C218.78 124.097 221.576 117.909 222.497 113.357C223.417 108.805 222.468 105.891 221.187 104.642C219.91 103.392 218.304 103.808 217.38 102.471C216.46 101.132 216.222 98.0383 214.616 96.2253C213.01 94.4097 210.037 93.8751 207.867 93.9942C205.698 94.1133 204.328 94.8861 203.23 94.4997H203.233ZM166.095 144.265C163.461 141.864 160.823 139.466 158.984 134.708C157.143 129.952 156.101 122.835 155.056 115.721L166.095 144.265ZM165.252 212.297C162.302 219.345 159.352 226.393 154.844 232.535C150.336 238.678 144.27 243.913 141.535 245.52C138.8 247.126 139.395 245.104 142.487 242.664C145.58 240.224 151.17 237.368 155.746 233.681C160.326 229.992 163.894 225.472 165.799 222.356C167.704 219.241 167.95 217.529 168.193 215.817L165.252 212.297ZM189.227 218.511C189.585 219.919 189.942 221.327 188.78 222.566C187.622 223.804 184.944 224.876 183.934 227.703C182.923 230.529 183.577 235.111 183.458 238.946C183.339 242.783 182.447 245.877 181.198 247.007C179.95 248.137 178.344 247.304 176.529 245.697C174.717 244.091 172.693 241.711 169.334 241.682C165.974 241.653 161.275 243.972 156.104 245.311C150.929 246.65 145.281 247.007 140.76 247.838C136.241 248.672 132.853 249.98 130.443 249.921C128.035 249.863 126.607 248.434 127.35 247.899C128.093 247.365 131.006 247.722 133.892 246.997C136.776 246.272 139.63 244.469 140.551 242.325C141.471 240.184 140.461 237.704 139.511 237.239C138.559 236.773 137.667 238.318 137.964 237.636C138.26 236.953 139.747 234.036 139.183 232.101C138.62 230.169 136.001 229.217 134.485 229.217C132.969 229.217 132.554 230.169 130.916 229.603C129.281 229.039 126.427 226.956 123.038 226.956C119.649 226.956 115.723 229.039 114.623 231.239C113.522 233.441 115.247 235.759 115.662 236.116C116.078 236.474 115.186 234.867 114.027 235.164C112.869 235.46 111.44 237.662 111.768 240.131C112.096 242.601 114.176 245.337 116.943 246.825C119.707 248.312 123.157 248.55 125.12 249.77C127.083 250.991 127.556 253.19 128.808 254.886C130.056 256.583 132.077 257.771 133.744 261.519C135.408 265.267 136.718 271.574 140.106 275.44C143.495 279.307 148.966 280.736 153.336 279.992C157.707 279.249 160.977 276.335 165.051 274.847C169.125 273.36 174 273.302 177.331 272.378C180.661 271.457 182.444 269.671 182.622 267.707C182.799 265.743 181.373 263.602 181.344 261.609C181.315 259.616 182.683 257.771 182.95 255.839C183.217 253.904 182.386 251.882 181.225 250.247C180.066 248.611 178.579 247.362 177.093 246.113L189.227 218.511ZM138.196 204.957C138.437 209.396 138.675 213.834 137.464 217.942C136.249 222.049 133.583 225.826 132.096 226.483C130.609 227.136 130.302 224.667 128.691 220.162C127.08 215.655 124.167 209.113 122.384 204.293C120.601 199.474 119.945 196.38 120.511 194.18C121.075 191.978 122.861 190.671 124.075 189.932C125.292 189.194 125.94 189.027 126.112 188.583C126.284 188.138 125.98 187.418 124.972 187.789C123.964 188.159 122.25 189.62 120.353 191.253C118.456 192.886 116.374 194.694 116.379 200.728C116.385 206.762 118.472 217.026 119.514 220.03C120.554 223.034 120.546 218.781 118.937 212.49C117.329 206.199 114.117 197.87 110.758 193.288C107.398 188.707 103.89 187.873 100.379 187.042L138.196 204.957ZM74.6893 210.6C81.467 218.572 88.2474 226.543 94.488 230.99C100.731 235.436 106.435 236.357 109.109 237.903C111.787 239.449 111.435 241.624 108.255 240.894C105.075 240.166 99.07 236.537 91.5171 233.147C83.9643 229.757 74.8666 226.602 68.5042 225.681C62.1419 224.76 58.515 226.067 56.9092 228.002C55.3034 229.936 55.7213 232.493 54.6499 233.536C53.5812 234.576 51.023 234.102 52.0045 236.331C52.9859 238.562 57.5044 243.501 61.2213 247.635C64.9381 251.769 67.8508 255.101 71.0624 255.397C74.274 255.694 77.7819 252.957 84.2633 251.112C90.7447 249.268 100.2 248.317 106.414 248.643C112.628 248.968 115.601 250.575 117.98 250.575C120.358 250.575 122.144 248.968 123.332 249.535C124.522 250.101 125.115 252.838 124.194 255.871C123.273 258.904 120.834 262.236 116.821 263.872C112.808 265.507 107.218 265.449 101.509 267.768C95.8002 270.089 89.9722 274.789 85.4537 277.555C80.9353 280.321 77.7237 281.154 75.7898 280.382C73.8587 279.609 73.2026 277.229 71.5386 275.89C69.8746 274.551 67.1974 274.255 66.5439 271.309C65.8905 268.363 67.2582 262.771 70.0836 259.29C72.9089 255.81 77.1893 254.442 83.9696 253.759C90.75 253.076 100.025 253.076 106.864 253.402C113.702 253.727 118.101 254.384 120.739 253.833C123.376 253.283 124.247 251.528 123.088 253.701C121.929 255.871 118.736 261.969 113.157 266.714C107.578 271.46 99.6096 274.85 96.3081 277.883C93.0092 280.916 94.3769 283.595 96.6652 284.786C98.9536 285.977 102.165 285.677 104.366 286.54C106.567 287.403 107.755 289.425 110.639 290.407C113.522 291.389 118.101 291.328 120.422 289.454C122.742 287.58 122.8 283.891 124.376 281.602C125.953 279.312 129.046 278.418 131.453 276.877C133.863 275.334 135.591 273.14 135.99 270.811C136.392 268.48 135.466 266.013 134.868 264.441C134.273 262.871 134.006 262.196 133.741 261.524L74.6893 210.6ZM89.0278 115.821C87.7579 117.616 86.4908 119.407 88.5013 124.616C90.5119 129.824 95.8054 138.453 98.0647 144.847C100.324 151.241 99.5514 155.407 98.8689 157.845C98.1837 160.285 97.5885 160.999 97.4694 160.523C97.3504 160.047 97.7075 158.382 96.7869 158.173C95.8663 157.964 93.6653 159.213 90.6627 157.013C87.6601 154.811 83.8532 149.161 80.2871 143.182C76.7184 137.203 73.3904 130.896 72.8163 126.839C72.2423 122.782 74.4248 120.977 74.6338 121.808C74.8428 122.641 73.0756 126.114 70.3481 128.326C67.6233 130.539 63.9355 131.492 60.6631 133.99C57.3933 136.489 54.5388 140.535 52.7849 144.193C51.0309 147.851 50.3749 151.125 49.2452 152.76C48.1156 154.396 46.5098 154.396 48.4437 155.169C50.3775 155.942 55.8483 157.49 61.8535 160.346C67.8587 163.201 74.401 167.367 77.1946 169.537C79.9882 171.71 79.0385 171.888 74.7528 169.559C70.4672 167.23 62.8456 162.397 56.6605 159.361C50.4754 156.328 45.7294 155.095 40.7083 155.28C35.6872 155.468 30.3963 157.072 27.809 158.829C25.2218 160.584 25.3408 162.489 23.5578 163.53C21.7747 164.57 18.0869 164.75 15.9759 166.266C13.8648 167.783 13.3304 170.638 15.4415 171.71C17.5526 172.782 22.3091 172.068 27.5418 173.465C32.7746 174.862 38.4835 178.372 45.8881 180.693C53.2902 183.014 62.3906 184.144 68.991 184.353C75.5914 184.562 79.6946 183.848 78.8321 184.412C77.9697 184.978 72.1418 186.82 64.7106 186.524C57.2769 186.227 48.2373 183.787 39.5866 183.104C30.9333 182.421 22.6689 183.491 17.7615 185.812C12.8542 188.133 11.3093 191.7 11.3701 193.844C11.4283 195.985 13.0949 196.7 13.3912 197.92C13.6875 199.14 12.6188 200.866 12.0526 201.758C11.4865 202.65 11.4283 202.71 13.4785 201.342C15.5288 199.974 19.6927 197.179 26.0842 195.183C32.4756 193.19 41.0998 191.999 48.4728 191.941C55.8483 191.88 61.9726 192.952 66.8482 192.179C71.7238 191.407 75.3507 188.789 78.8004 186.796C82.2501 184.803 85.5199 183.435 88.1071 183.85C90.6944 184.266 92.5965 186.468 94.7975 186.529C96.9959 186.59 99.4959 184.507 99.9403 185.309C100.387 186.113 98.7816 189.8 95.689 192.24C92.5965 194.681 88.0172 195.869 85.3426 196.017C82.6654 196.165 81.8929 195.273 82.6363 193.071C83.3797 190.869 85.6389 187.36 85.7289 187.717C85.8188 188.074 83.7368 192.299 81.7739 196.284C79.811 200.27 77.9697 204.018 76.4221 207.112C74.8772 210.206 73.6285 212.646 72.0227 214.607C70.4169 216.571 68.454 218.058 66.6709 218.384C64.8879 218.709 63.2821 217.878 61.8826 218.622C60.4832 219.366 59.2954 221.687 57.6023 221.896C55.9065 222.105 53.7081 220.199 52.3404 219.011C50.9727 217.823 50.4383 217.346 49.2188 217.315C47.9992 217.286 46.0971 217.701 44.5204 216.391C42.9437 215.084 41.6951 212.048 42.2321 209.044C42.7691 206.04 45.0866 203.065 48.4754 201.339C51.8643 199.614 56.3245 199.137 59.3589 198.036C62.3906 196.935 63.9964 195.21 65.454 194.051C66.9117 192.891 68.2185 192.296 69.528 191.7L89.0278 115.821ZM106.443 179.835C104.782 181.114 103.123 182.392 100.924 182.614C98.726 182.837 95.9906 182.003 93.4589 182.03C90.9272 182.056 88.6018 182.94 86.668 182.641C84.7342 182.344 83.1972 180.865 82.8136 179.023C82.43 177.184 83.2051 174.982 84.84 173.671C86.4749 172.361 88.9722 171.946 90.8769 170.339C92.7817 168.733 94.0885 165.938 96.1679 163.082C98.2499 160.226 101.104 157.313 102.961 156.246C104.821 155.179 105.684 155.96 104.604 156.982C103.525 158.003 100.499 159.263 97.6308 160.062C94.7605 160.862 92.0436 161.198 89.2315 163.212C86.4167 165.226 83.504 168.913 81.8982 172.335C80.2924 175.757 79.9961 178.909 80.4406 180.91C80.885 182.911 82.0728 183.758 83.2606 184.605L106.443 179.835ZM111.755 148.176C112.072 145.847 112.387 143.518 113.348 141.374C114.308 139.228 115.914 137.264 116.58 135.131C117.247 132.995 116.972 130.687 116.699 128.382L111.755 148.176ZM225.404 247.219C223.756 247.036 222.105 246.854 219.259 246.229C216.412 245.602 212.37 244.533 207.997 242.598C203.624 240.663 198.928 237.868 196.793 235.052C194.659 232.236 195.085 229.399 194.653 226.308C194.225 223.217 192.936 219.871 191.817 219.207C190.698 218.545 189.743 220.565 189.907 222.436C190.069 224.307 191.349 226.03 192.434 226.742C193.518 227.454 194.41 227.157 195.51 226.562C196.611 225.967 197.92 225.075 200.447 225.045C202.973 225.016 206.719 225.85 209.248 228.854C211.775 231.858 213.084 237.035 215.433 239.591C217.783 242.151 221.171 242.09 222.986 243.368C224.801 244.647 225.036 247.264 226.407 248.871C227.775 250.477 230.272 251.073 232.74 250.506C235.208 249.942 237.645 248.217 240.618 247.947C243.592 247.68 247.1 248.868 247.457 248.601C247.814 248.333 245.018 246.608 240.409 244.287C235.801 241.965 229.378 239.052 224.412 236.91C219.447 234.769 215.939 233.401 213.619 232.152C211.299 230.902 210.169 229.772 209.725 226.975C209.277 224.18 209.516 219.718 208.566 216.192C207.613 212.667 205.473 210.079 204.285 209.256C203.098 208.432 202.857 209.369 203.629 209.533C204.402 209.698 206.188 209.084 209.013 211.069C211.838 213.054 215.703 217.635 219.034 221.412C222.365 225.188 225.158 228.163 227.984 230.394C230.809 232.625 233.663 234.113 234.941 235.659C236.219 237.204 235.923 238.811 234.674 238.93C233.425 239.049 231.224 237.681 229.38 236.074C227.536 234.468 226.05 232.623 224.653 232.385C223.256 232.146 221.949 233.515 220.103 233.337C218.259 233.16 215.881 231.434 214.542 229.619C213.203 227.803 212.907 225.9 212.254 224.95C211.6 223.997 210.59 223.997 210.023 223.225C209.457 222.452 209.338 220.903 209.219 219.358L225.404 247.219ZM239.1 243.633C241.735 241.283 244.367 238.935 248.272 238.623C252.176 238.31 257.348 240.036 260.232 242.296C263.115 244.557 263.711 247.354 264.663 248.185C265.615 249.019 266.922 247.889 267.189 246.253C267.457 244.617 266.684 242.476 266.832 240.483C266.98 238.49 268.052 236.646 267.099 233.851C266.147 231.056 263.176 227.306 258.779 226.279C254.385 225.252 248.571 226.946 243.933 228.608C239.296 230.27 235.838 231.895 236.224 231.538C236.61 231.18 240.843 228.838 245.24 226.731C249.639 224.625 254.205 222.751 257.293 223.124C260.38 223.497 261.986 226.115 262.816 225.667C263.647 225.22 263.708 221.711 262.549 219.035C261.39 216.359 259.01 214.514 257.555 211.778C256.097 209.041 255.563 205.413 253.399 204.177C251.235 202.941 247.441 204.1 242.481 206.286C237.52 208.472 231.396 211.685 227.293 214.377C223.19 217.068 221.108 219.241 219.859 218.942C218.611 218.646 218.195 215.878 217.005 214.049C215.814 212.22 213.854 211.328 212.172 210.854C210.489 210.383 209.087 210.33 209.772 209.409C210.455 208.488 213.224 206.694 216.452 204.402C219.679 202.107 223.367 199.312 225.775 196.576C228.185 193.839 229.314 191.16 229.933 188.583C230.552 186.005 230.669 183.522 230.64 184.057C230.61 184.592 230.436 188.146 231.333 190.994C232.229 193.842 234.19 195.983 236.481 197.976C238.769 199.969 241.385 201.813 243.02 203.285C244.655 204.759 245.306 205.857 246.227 206.384C247.15 206.911 248.343 206.863 249.534 206.815L239.1 243.633ZM181.206 247.026C185.19 244.467 189.175 241.91 192.278 240.396C195.381 238.882 197.606 238.416 199.83 237.948L181.206 247.026ZM193.981 227.139C192.278 229.365 190.577 231.593 188.825 233.179C187.071 234.767 185.27 235.714 183.466 236.664L193.981 227.139ZM61.2345 247.65C59.7425 250.697 58.2504 253.746 52.5759 254.653C46.904 255.561 37.0496 254.328 28.182 255.561C19.3144 256.795 11.4309 260.489 8.72199 260.121C6.01303 259.751 8.47596 255.315 11.1849 248.169C13.8939 241.023 16.8489 231.165 22.1054 224.852C27.3619 218.54 34.92 215.774 36.1502 215.774C37.3803 215.774 32.2878 218.54 27.1556 220.541C22.0234 222.539 16.8489 223.772 12.0447 226.975C7.24053 230.18 2.80672 235.354 1.45225 235.23C0.0977669 235.105 1.82261 229.685 6.13208 223.524C10.4442 217.362 17.3409 210.462 24.1609 207.167C30.9809 203.87 37.7242 204.179 44.4675 204.486L61.2345 247.65ZM235.706 179.592C239.928 172.552 244.15 165.512 252.753 161.746C261.356 157.979 274.337 157.482 283.536 157.604C292.737 157.725 298.155 158.464 300.496 158.342C302.837 158.22 302.096 157.233 299.879 158.959C297.662 160.684 293.967 165.12 291.258 170.294C288.549 175.469 286.824 181.384 282.636 186.19C278.448 190.996 271.798 194.691 266.512 197.504C261.229 200.318 257.311 202.25 258.295 201.758C259.279 201.265 265.168 198.349 272.917 196.396C280.665 194.445 290.271 193.458 297.906 193.336C305.543 193.212 311.207 193.953 315.025 192.719C318.842 191.486 320.813 188.284 319.334 189.514C317.855 190.748 312.929 196.414 308.168 200.847C303.406 205.28 298.808 208.477 294.21 211.675L235.706 179.592ZM80.8427 279.918C78.229 287.98 75.6179 296.044 75.6655 304.511C75.7131 312.978 78.4247 321.849 79.9009 323.821C81.3797 325.793 81.6257 320.865 83.7183 316.058C85.8109 311.252 89.7526 306.57 94.5488 302.32C99.3451 298.069 104.991 294.247 110.639 290.426L80.8427 279.918ZM185.421 81.0415C190.563 76.7831 195.706 72.5246 203.698 69.0416C211.69 65.556 222.529 62.8458 231.764 63.7086C241.002 64.5714 248.637 69.0072 253.933 69.4995C259.229 69.9918 262.187 66.5432 260.954 67.2816C259.724 68.02 254.303 72.9507 249.253 77.8788C244.203 82.8068 239.523 87.7349 233.811 90.7971C228.1 93.8592 221.359 95.0502 214.973 94.6347C208.587 94.2192 202.555 92.1945 198.942 91.2046C195.328 90.2148 194.129 90.2624 192.934 90.3074L185.421 81.0415Z" stroke="#C6C6C6" stroke-width="2" stroke-linecap="round" stroke-linejoin="round"/>
</svg>
